<svg width="136" height="136" viewBox="0 0 136 136" fill="none" xmlns="http://www.w3.org/2000/svg">
<g clip-path="url(#clip0_352_808)">
<path d="M59.9859 6.94907C53.8611 13.1253 19.2245 37.0609 3.81607 48.8393C16.2579 54.2047 49.3489 66.6519 73.025 68.8556C80.7707 64.2638 116.804 39.1977 133.853 27.2387C124.1 25.0738 95.673 17.9851 59.9859 6.94907Z" stroke="#314839" stroke-width="3.45"/>
<path d="M20.6092 55.4811L26.4453 89.7945C35.6341 93.1748 58.6391 99.2447 77.1481 96.4814C95.657 93.7182 115.713 78.2347 123.427 70.8384L118.242 38.5199" stroke="#314839" stroke-width="3.45"/>
<path d="M60.988 33.7855L34.3695 59.4603C37.4361 72.6522 39.5322 100.503 35.0211 112.277C32.2223 119.581 28.7466 123.977 23.9041 124.528C24.8005 127.519 28.5369 130.834 35.0211 130.834C37.7633 130.834 36.7596 113.829 36.3785 107.351" stroke="#314839" stroke-width="3.45"/>
</g>
<defs>
<clipPath id="clip0_352_808">
<rect width="136" height="136" fill="white"/>
</clipPath>
</defs>
</svg>
