<?xml version="1.0" encoding="UTF-8" standalone="no"?>
<!-- Created with Inkscape (http://www.inkscape.org/) -->

<svg
   width="15.698202mm"
   height="16.037603mm"
   viewBox="0 0 15.698202 16.037603"
   version="1.1"
   id="svg1"
   xml:space="preserve"
   xmlns:inkscape="http://www.inkscape.org/namespaces/inkscape"
   xmlns:sodipodi="http://sodipodi.sourceforge.net/DTD/sodipodi-0.dtd"
   xmlns="http://www.w3.org/2000/svg"
   xmlns:svg="http://www.w3.org/2000/svg"><sodipodi:namedview
     id="namedview1"
     pagecolor="#ffffff"
     bordercolor="#666666"
     borderopacity="1.0"
     inkscape:showpageshadow="2"
     inkscape:pageopacity="0.0"
     inkscape:pagecheckerboard="0"
     inkscape:deskcolor="#d1d1d1"
     inkscape:document-units="mm"><inkscape:page
       x="-3.3668507e-06"
       y="-7.0005672e-07"
       width="15.698202"
       height="16.037603"
       id="page4"
       margin="0"
       bleed="0" /></sodipodi:namedview><defs
     id="defs1"><clipPath
       clipPathUnits="userSpaceOnUse"
       id="clipPath2593"><path
         d="M 0,858.898 H 1207.559 V 0 H 0 Z"
         transform="translate(-383.52091,-113.222)"
         id="path2593" /></clipPath><clipPath
       clipPathUnits="userSpaceOnUse"
       id="clipPath2595"><path
         d="M 0,858.898 H 1207.559 V 0 H 0 Z"
         transform="translate(-366.21021,-105.65951)"
         id="path2595" /></clipPath><clipPath
       clipPathUnits="userSpaceOnUse"
       id="clipPath2597"><path
         d="M 0,858.898 H 1207.559 V 0 H 0 Z"
         transform="translate(-372.60531,-106.18751)"
         id="path2597" /></clipPath><clipPath
       clipPathUnits="userSpaceOnUse"
       id="clipPath2599"><path
         d="M 0,858.898 H 1207.559 V 0 H 0 Z"
         transform="translate(-388.90061,-79.962787)"
         id="path2599" /></clipPath><clipPath
       clipPathUnits="userSpaceOnUse"
       id="clipPath2601"><path
         d="M 0,858.898 H 1207.559 V 0 H 0 Z"
         transform="translate(-379.29521,-101.0333)"
         id="path2601" /></clipPath><clipPath
       clipPathUnits="userSpaceOnUse"
       id="clipPath2603"><path
         d="M 0,858.898 H 1207.559 V 0 H 0 Z"
         transform="translate(-383.00891,-106.86941)"
         id="path2603" /></clipPath><clipPath
       clipPathUnits="userSpaceOnUse"
       id="clipPath2605"><path
         d="M 0,858.898 H 1207.559 V 0 H 0 Z"
         transform="translate(-393.53801,-106.535)"
         id="path2605" /></clipPath><clipPath
       clipPathUnits="userSpaceOnUse"
       id="clipPath2607"><path
         d="M 0,858.898 H 1207.559 V 0 H 0 Z"
         transform="translate(-395.55761,-109.7747)"
         id="path2607" /></clipPath><clipPath
       clipPathUnits="userSpaceOnUse"
       id="clipPath2609"><path
         d="M 0,858.898 H 1207.559 V 0 H 0 Z"
         transform="translate(-395.99081,-113.4387)"
         id="path2609" /></clipPath></defs><g
     id="g1"
     inkscape:groupmode="layer"
     inkscape:label="1"
     transform="matrix(0.26458332,0,0,0.26458335,-125.31088,-259.73966)"><text
       id="text2583"
       xml:space="preserve"
       transform="matrix(1.3333333,0,0,1.3333333,221.78901,1018.0059)"><tspan
         style="font-variant:normal;font-weight:500;font-stretch:normal;font-size:14px;font-family:'Filson Pro';writing-mode:lr-tb;fill:#edf6e3;fill-opacity:1;fill-rule:nonzero;stroke:none"
         x="0 9.1000004 12.838 21.336 26.572001 35.237999 49.588001 58.688 67.802002 76.916 80.542 89.012001 98.125999 106.624 110.376 119.49"
         y="0"
         sodipodi:role="line"
         id="tspan2584">biuro@gdp.edu.pl</tspan><tspan
         style="font-variant:normal;font-weight:500;font-stretch:normal;font-size:14px;font-family:'Filson Pro';writing-mode:lr-tb;fill:#edf6e3;fill-opacity:1;fill-rule:nonzero;stroke:none"
         x="248.09399 256.66199 265.28601 273.91 277.466 286.09 293.87399 302.44199 305.99799 314.944 320.44601"
         y="-9.0019999"
         sodipodi:role="line"
         id="tspan2585">533 375 911</tspan><tspan
         style="font-variant:normal;font-weight:500;font-stretch:normal;font-size:14px;font-family:'Filson Pro';writing-mode:lr-tb;fill:#edf6e3;fill-opacity:1;fill-rule:nonzero;stroke:none"
         x="248.09399 256.66199 265.28601 273.91 277.466 286.09 293.87399 302.44199 305.99799 314.944 324.89801"
         y="10.136"
         sodipodi:role="line"
         id="tspan2586">533 375 909</tspan></text><path
       id="path2592"
       d="m 0,0 c -1.666,0.549 -16.866,-6.93 -17.425,-7.546 -1.752,-1.93 12.113,-34.337 14.648,-34.181 2.534,0.156 19.227,6.758 19.447,9.26 C 16.915,-29.671 2.082,-0.687 0,0 Z"
       style="fill:none;stroke:#edf6e3;stroke-width:1.257;stroke-linecap:butt;stroke-linejoin:miter;stroke-miterlimit:4;stroke-dasharray:none;stroke-opacity:1"
       transform="matrix(1.3333333,0,0,-1.3333333,500.02261,982.89608)"
       clip-path="url(#clipPath2593)" /><path
       id="path2594"
       d="m 0,0 c -0.907,-0.317 -2.424,-2.918 -1.654,-5.641 1.4,-4.95 10.601,-25.849 13.729,-29.794 3.129,-3.945 19.988,5.846 20.922,6.911 0.934,1.065 1.305,2.856 0.934,4.016"
       style="fill:none;stroke:#edf6e3;stroke-width:1.257;stroke-linecap:butt;stroke-linejoin:miter;stroke-miterlimit:4;stroke-dasharray:none;stroke-opacity:1"
       transform="matrix(1.3333333,0,0,-1.3333333,476.94168,992.97941)"
       clip-path="url(#clipPath2595)" /><path
       id="path2596"
       d="M 0,0 5.836,2.728"
       style="fill:none;stroke:#edf6e3;stroke-width:1.257;stroke-linecap:butt;stroke-linejoin:miter;stroke-miterlimit:4;stroke-dasharray:none;stroke-opacity:1"
       transform="matrix(1.3333333,0,0,-1.3333333,485.46848,992.27541)"
       clip-path="url(#clipPath2597)" /><path
       id="path2598"
       d="M 0,0 C 1.895,1.061 3.942,-1.667 1.44,-2.804 -1.061,-3.941 -1.819,-1.061 0,0 Z"
       style="fill:none;stroke:#edf6e3;stroke-width:1.257;stroke-linecap:butt;stroke-linejoin:miter;stroke-miterlimit:4;stroke-dasharray:none;stroke-opacity:1"
       transform="matrix(1.3333333,0,0,-1.3333333,507.19555,1027.2417)"
       clip-path="url(#clipPath2599)" /><path
       id="path2600"
       d="m 0,0 0.379,2.122 m -4.927,-21.828 4.093,18.039"
       style="fill:none;stroke:#edf6e3;stroke-width:1.257;stroke-linecap:butt;stroke-linejoin:miter;stroke-miterlimit:4;stroke-dasharray:none;stroke-opacity:1"
       transform="matrix(1.3333333,0,0,-1.3333333,494.38835,999.14768)"
       clip-path="url(#clipPath2601)" /><path
       id="path2602"
       d="M 0,0 -3.562,-18.872"
       style="fill:none;stroke:#edf6e3;stroke-width:1.257;stroke-linecap:butt;stroke-linejoin:miter;stroke-miterlimit:4;stroke-dasharray:none;stroke-opacity:1"
       transform="matrix(1.3333333,0,0,-1.3333333,499.33995,991.36621)"
       clip-path="url(#clipPath2603)" /><path
       id="path2604"
       d="M 0,0 C 1.061,0.078 3.542,-0.383 4.98,-2.849 6.418,-5.316 6.038,-7.516 5.669,-8.307"
       style="fill:none;stroke:#edf6e3;stroke-width:1.257;stroke-linecap:butt;stroke-linejoin:miter;stroke-miterlimit:4;stroke-dasharray:none;stroke-opacity:1"
       transform="matrix(1.3333333,0,0,-1.3333333,513.37875,991.81208)"
       clip-path="url(#clipPath2605)" /><path
       id="path2606"
       d="m 0,0 c 1.424,0.105 4.583,-0.28 6.513,-3.591 1.93,-3.311 1.593,-6.498 1.097,-7.561"
       style="fill:none;stroke:#edf6e3;stroke-width:1.257;stroke-linecap:butt;stroke-linejoin:miter;stroke-miterlimit:4;stroke-dasharray:none;stroke-opacity:1"
       transform="matrix(1.3333333,0,0,-1.3333333,516.07155,987.49248)"
       clip-path="url(#clipPath2607)" /><path
       id="path2608"
       d="m 0,0 c 1.993,0.284 6.913,-0.41 9.772,-5.113 2.849,-4.686 1.656,-8.766 1.093,-10.088"
       style="fill:none;stroke:#edf6e3;stroke-width:1.257;stroke-linecap:butt;stroke-linejoin:miter;stroke-miterlimit:4;stroke-dasharray:none;stroke-opacity:1"
       transform="matrix(1.3333333,0,0,-1.3333333,516.64915,982.60715)"
       clip-path="url(#clipPath2609)" /></g></svg>
