<svg width="174" height="162" viewBox="0 0 174 162" fill="none" xmlns="http://www.w3.org/2000/svg">
<g clip-path="url(#clip0_5_14)">
<mask id="mask0_5_14" style="mask-type:luminance" maskUnits="userSpaceOnUse" x="0" y="0" width="174" height="162">
<path d="M173.847 0H0V162H173.847V0Z" fill="white"/>
</mask>
<g mask="url(#mask0_5_14)">
<path d="M79.125 121.264C79.2129 116.178 79.0337 108.096 78.2203 100.179M78.2203 100.179C77.372 91.9213 75.8338 83.8435 73.1894 79.531C66.7145 68.9721 46.5601 85.1269 78.2203 100.179ZM78.2203 100.179C87.5146 99.4974 115.15 58.3557 96.9305 53.8879C86.6785 51.3739 90.2629 75.9867 89.3764 86.5703C88.6671 95.0373 86.2031 113.227 85.0598 121.264" stroke="#314839" stroke-width="3.45"/>
<path d="M68.7964 125.11C66.6504 118.611 68.7964 112.512 58.0663 105.613C46.496 98.1731 29.632 86.615 51.6284 55.1188C71.479 30.6219 114.399 20.6231 124.592 55.1188C132.748 82.7155 111.538 100.28 99.9133 105.613L94.6863 125.096C93.2315 130.518 89.4171 135.169 83.9959 137.561C74.5368 141.735 63.2181 145.81 61.2854 143.108C54.4894 133.609 84.176 139.275 97.2308 139.608C103.946 141.044 104.681 145.546 89.1834 150.107C72.8737 154.907 63.7891 154.44 61.2854 153.607" stroke="#314839" stroke-width="3.45"/>
<path d="M33.8303 102.316L10.7144 111.067M33.8303 63.2745L10.7144 46.4461M70.6702 24.9058L60.5573 0M127.737 30.9642L150.852 9.42388M139.294 70.0058H163.132M139.294 129.241L123.402 111.067" stroke="#314839" stroke-width="3.45"/>
</g>
</g>
<defs>
<clipPath id="clip0_5_14">
<rect width="173.847" height="162" fill="white"/>
</clipPath>
</defs>
</svg>
