<svg width="156" height="162" viewBox="0 0 156 162" fill="none" xmlns="http://www.w3.org/2000/svg">
<path d="M68.5192 14.0933C63.2799 12.2964 15.4745 36.7571 13.715 38.773C8.20614 45.0831 51.8131 151.065 59.7841 150.555C67.7552 150.045 120.258 128.453 120.948 120.272C121.719 111.129 75.0681 16.3392 68.5192 14.0933Z" stroke="#314839" stroke-width="3.45"/>
<path d="M14.0746 38.8254C11.2228 39.8635 6.45154 48.3699 8.87283 57.2741C13.2749 73.4628 42.213 141.81 52.0535 154.711C61.894 167.613 114.916 135.59 117.853 132.109C120.791 128.627 121.96 122.77 120.791 118.974" stroke="#314839" stroke-width="3.45"/>
<path d="M34.188 37.0987L52.543 28.1758" stroke="#314839" stroke-width="3.45"/>
<path d="M85.4391 122.863C91.399 119.393 97.8362 128.316 89.9692 132.034C82.1022 135.752 79.7175 126.334 85.4391 122.863Z" stroke="#314839" stroke-width="3.45"/>
<path d="M40.926 118.401L53.7989 59.4078M55.2287 53.9547L56.4205 47.0143" stroke="#314839" stroke-width="3.45"/>
<path d="M66.909 34.8687L55.7054 96.5883" stroke="#314839" stroke-width="3.45"/>
<path d="M100.024 35.9622C103.361 35.7072 111.165 37.2139 115.687 45.2802C120.208 53.3465 119.015 60.5406 117.853 63.1295" stroke="#314839" stroke-width="3.45"/>
<path d="M106.376 25.3672C110.856 25.0249 120.792 26.2827 126.862 37.1111C132.931 47.9394 131.869 58.3617 130.31 61.8369" stroke="#314839" stroke-width="3.45"/>
<path d="M107.739 13.3848C114.006 12.4573 129.48 14.7253 138.472 30.105C147.433 45.4299 143.68 58.774 141.91 63.0959" stroke="#314839" stroke-width="3.45"/>
</svg>
