<?xml version="1.0" encoding="UTF-8" standalone="no"?>
<!-- Created with Inkscape (http://www.inkscape.org/) -->

<svg
   width="15.774021mm"
   height="17.201971mm"
   viewBox="0 0 15.774021 17.201971"
   version="1.1"
   id="svg1"
   xml:space="preserve"
   xmlns:inkscape="http://www.inkscape.org/namespaces/inkscape"
   xmlns:sodipodi="http://sodipodi.sourceforge.net/DTD/sodipodi-0.dtd"
   xmlns="http://www.w3.org/2000/svg"
   xmlns:svg="http://www.w3.org/2000/svg"><sodipodi:namedview
     id="namedview1"
     pagecolor="#ffffff"
     bordercolor="#666666"
     borderopacity="1.0"
     inkscape:showpageshadow="2"
     inkscape:pageopacity="0.0"
     inkscape:pagecheckerboard="0"
     inkscape:deskcolor="#d1d1d1"
     inkscape:document-units="mm"><inkscape:page
       x="-1.0198146e-06"
       y="1.3202524e-05"
       width="15.774021"
       height="17.201971"
       id="page4"
       margin="0"
       bleed="0" /></sodipodi:namedview><defs
     id="defs1"><clipPath
       clipPathUnits="userSpaceOnUse"
       id="clipPath2587"><path
         d="m 116.523,66.625 h 49.536 v 49.536 h -49.536 z"
         transform="translate(-149.2337,-105.6875)"
         id="path2587" /></clipPath><clipPath
       clipPathUnits="userSpaceOnUse"
       id="clipPath2589"><path
         d="m 116.523,66.625 h 49.536 v 49.536 h -49.536 z"
         transform="translate(-152.38631,-96.054787)"
         id="path2589" /></clipPath><clipPath
       clipPathUnits="userSpaceOnUse"
       id="clipPath2591"><path
         d="m 116.523,66.625 h 49.536 v 49.536 h -49.536 z"
         transform="translate(-120.9497,-92.856337)"
         id="path2591" /></clipPath></defs><g
     id="g1"
     inkscape:groupmode="layer"
     inkscape:label="1"
     transform="matrix(0.26458332,0,0,0.26458335,-39.394833,-259.23139)"><path
       id="path2586"
       d="m 0,0 6.482,-3.755 8.355,-21.465 c -9.61,-3.561 -29.889,-11.124 -34.131,-12.887 -3.033,4.462 -7.322,18.552 -9.088,25.039 l 3.162,5.204 m 16.302,12.936 -6.543,3.937 -3.864,-6.693"
       style="fill:none;stroke:#edf6e3;stroke-width:1.257;stroke-linecap:butt;stroke-linejoin:miter;stroke-miterlimit:4;stroke-dasharray:none;stroke-opacity:1"
       transform="matrix(1.3333333,0,0,-1.3333333,187.63968,992.94208)"
       clip-path="url(#clipPath2587)"
       inkscape:export-filename=".\ico-mail.png"
       inkscape:export-xdpi="177.71001"
       inkscape:export-ydpi="177.71001" /><path
       id="path2588"
       d="M 0,0 C -1.455,3.882 -4.397,12.667 -4.523,16.757 -14.41,13.746 -26.1,11.241 -30.569,9.655 c 0.642,-3.373 2.364,-11.432 6.396,-15.953"
       style="fill:none;stroke:#edf6e3;stroke-width:1.257;stroke-linecap:butt;stroke-linejoin:miter;stroke-miterlimit:4;stroke-dasharray:none;stroke-opacity:1"
       transform="matrix(1.3333333,0,0,-1.3333333,191.84315,1005.7857)"
       clip-path="url(#clipPath2589)" /><path
       id="path2590"
       d="M 0,0 C 9.405,-4.051 31.151,-12.136 42.893,-12.071 M 34.719,9.34 C 30.48,1.648 19.381,-15.974 8.897,-24.924"
       style="fill:none;stroke:#edf6e3;stroke-width:1.257;stroke-linecap:butt;stroke-linejoin:miter;stroke-miterlimit:4;stroke-dasharray:none;stroke-opacity:1"
       transform="matrix(1.3333333,0,0,-1.3333333,149.92768,1010.0503)"
       clip-path="url(#clipPath2591)" /></g></svg>
