<svg width="136" height="136" viewBox="0 0 136 136" fill="none" xmlns="http://www.w3.org/2000/svg">
<g clip-path="url(#clip0_282_815)">
<path d="M62.6587 74.8627L61.2715 55.9429C68.2501 57.9918 77.8719 61.7312 81.2758 64.3527C82.8269 65.5474 68.5539 72.1138 62.6587 74.8627Z" stroke="#314839" stroke-width="3.45"/>
<path d="M96.5561 61.7933C93.9838 42.4972 74.8359 34.7855 57.9972 40.2296C41.669 45.5087 37.0858 55.6312 40.3519 69.744C41.4711 74.5799 46.647 89.2428 61.7204 90.7953C76.7939 92.3478 99.7313 85.6108 96.5561 61.7933Z" stroke="#314839" stroke-width="3.45"/>
<path d="M18.3777 103.55C32.6748 104.049 91.8989 100.836 119.724 99.1679C127.328 98.7195 119.763 28.7451 116.275 24.7546C113.485 21.5622 47.4332 27.3496 14.756 30.6424C14.6542 46.8394 15.2362 84.0968 18.3777 103.55Z" stroke="#314839" stroke-width="3.45"/>
<path d="M20.8482 131.651C19.7689 126.408 17.5941 116.098 20.8477 115.899C48.6691 114.171 107.886 110.833 122.184 111.301C123.587 119.871 123.946 123.981 125.615 131.651" stroke="#314839" stroke-width="3.45"/>
<path d="M114.425 2.81412L115.809 10.1677C101.675 12.3787 42.4938 16.2976 14.6698 17.9807C10.6208 16.6296 10.8077 3.74783 10.8075 0.200291" stroke="#314839" stroke-width="3.45"/>
</g>
<defs>
<clipPath id="clip0_282_815">
<rect width="136" height="136" fill="white"/>
</clipPath>
</defs>
</svg>
