<svg width="210" height="122" viewBox="0 0 210 122" fill="none" xmlns="http://www.w3.org/2000/svg">
<g clip-path="url(#clip0_5_38)">
<path fill-rule="evenodd" clip-rule="evenodd" d="M207.197 119.982C207.377 135.865 203.896 153.675 189.669 161.845L184.63 153.055L189.669 161.845C182.322 166.064 174.224 166.253 166.699 164.625C159.274 163.019 151.645 159.501 144.217 155.215C130.1 147.068 114.541 134.828 99.6012 123.075C98.8747 122.503 98.1497 121.933 97.4263 121.364C81.4301 108.787 66.1963 96.9724 52.6786 89.5793C38.3906 81.7651 30.1573 81.2032 25.57 83.8467L20.5181 75.0647L25.57 83.8467C23.289 85.1611 22.1289 86.5833 21.4637 87.9723C20.7547 89.4528 20.3081 91.5397 20.4905 94.5116C20.8727 100.74 23.9011 109.084 29.3891 118.859C40.2337 138.175 58.3624 159.068 71.9009 172.426L57.685 186.859C43.4779 172.842 23.8845 150.427 11.7356 128.788C5.72693 118.085 0.940871 106.541 0.278921 95.7541C-0.0607803 90.2186 0.663097 84.5166 3.20324 79.2125C5.78713 73.8169 9.95481 69.4587 15.4661 66.2828C30.3597 57.7003 47.8796 63.8592 62.3887 71.7944C77.668 80.1509 94.2752 93.114 109.935 105.426C110.463 105.841 110.989 106.255 111.514 106.668C126.983 118.833 141.512 130.259 154.332 137.657C160.934 141.467 166.482 143.843 170.976 144.816C175.371 145.766 177.936 145.216 179.591 144.266C183.369 142.096 187.119 135.165 186.949 120.213C186.87 113.296 185.937 105.56 184.298 97.4891C172.852 91.9643 162.571 85.3139 153.782 78.2311C138.557 65.9627 126.98 51.7536 121.608 38.7387C118.94 32.2756 117.411 25.1487 118.759 18.3641C120.229 10.9649 124.93 5.09129 132.215 1.94835L136.223 11.2542L132.215 1.94834C139.93 -1.37992 147.672 -0.114293 154.219 3.23527C160.529 6.46407 166.2 11.8052 171.14 17.8646C181.071 30.0458 189.912 47.4465 196.31 65.4681C198.352 71.2186 200.178 77.1267 201.725 83.0535C224.739 92.2641 251.993 95.8321 280.457 87.7662L285.973 107.267C257.408 115.361 230.109 113.451 206.222 106.109C206.809 110.872 207.146 115.523 207.197 119.982ZM176.28 69.6372C170.477 53.9922 163.013 39.9538 155.45 30.6776C151.434 25.7511 147.848 22.7374 145.002 21.281C142.391 19.9454 141.075 20.1956 140.231 20.5601C138.956 21.1098 138.768 21.5693 138.62 22.3172C138.349 23.6797 138.471 26.514 140.323 30.9998C143.99 39.8829 152.927 51.5229 166.481 62.4448C169.558 64.9242 172.83 67.3334 176.28 69.6372Z" fill="#95C92C"/>
</g>
<defs>
<clipPath id="clip0_5_38">
<rect width="226" height="169" fill="white"/>
</clipPath>
</defs>
</svg>
