<svg width="136" height="136" viewBox="0 0 136 136" fill="none" xmlns="http://www.w3.org/2000/svg">
<path d="M47.7831 76.0603C20.2159 71.5596 11.433 41.5056 20.3946 23.2369C35.0216 -6.58092 134.931 7.76501 129.868 59.5238C128.052 78.0894 104.918 91.5065 88.2278 93.1943C101.168 81.1923 107.117 75.3185 107.567 60.9161C107.785 53.9463 105.609 48.3079 99.9826 50.5583C95.4817 52.3586 102.761 66.4639 120.293 68.0578C93.6805 79.3589 77.4376 80.9017 47.7831 76.0603Z" stroke="#314839" stroke-width="3.45"/>
<path d="M12.4991 95.5093C13.4147 107.411 21.1779 120.175 28.1715 126.024C24.7382 115.725 28.1715 103.518 40.3786 102.755C52.5858 101.992 86.5367 93.5994 68.2261 73.3814C49.9155 53.1634 10.7177 72.3519 12.4991 95.5093Z" stroke="#314839" stroke-width="3.45"/>
</svg>
