<?xml version="1.0" encoding="UTF-8" standalone="no"?>
<!-- Created with Inkscape (http://www.inkscape.org/) -->
<svg width="67.850571mm" height="24.51417mm" viewBox="0 0 67.850571 24.514169" version="1.1" id="svg1" xml:space="preserve" xmlns="http://www.w3.org/2000/svg" xmlns:svg="http://www.w3.org/2000/svg"><defs id="defs1"><clipPath clipPathUnits="userSpaceOnUse" id="clipPath2619"><path d="m 958.82,230.902 h 192.336 v 69.489 H 958.82 Z" transform="translate(-985.12284,-294.00461)" id="path2619"/></clipPath><clipPath clipPathUnits="userSpaceOnUse" id="clipPath2621"><path d="m 958.82,230.902 h 192.336 v 69.489 H 958.82 Z" transform="translate(2.5000001e-7,-3.5000001e-5)" id="path2621"/></clipPath><clipPath clipPathUnits="userSpaceOnUse" id="clipPath2623"><path d="m 958.82,230.902 h 192.336 v 69.489 H 958.82 Z" transform="translate(-1025.2059,-291.5589)" id="path2623"/></clipPath><clipPath clipPathUnits="userSpaceOnUse" id="clipPath2625"><path d="m 958.82,230.902 h 192.336 v 69.489 H 958.82 Z" transform="translate(-1042.3879,-287.14271)" id="path2625"/></clipPath><clipPath clipPathUnits="userSpaceOnUse" id="clipPath2627"><path d="m 958.82,230.902 h 192.336 v 69.489 H 958.82 Z" transform="translate(-1056.0259,-270.24311)" id="path2627"/></clipPath><clipPath clipPathUnits="userSpaceOnUse" id="clipPath2629"><path d="m 958.82,230.902 h 192.336 v 69.489 H 958.82 Z" transform="translate(-1080.7473,-274.59771)" id="path2629"/></clipPath><clipPath clipPathUnits="userSpaceOnUse" id="clipPath2631"><path d="m 958.82,230.902 h 192.336 v 69.489 H 958.82 Z" transform="translate(-1097.3467,-270.72701)" id="path2631"/></clipPath><clipPath clipPathUnits="userSpaceOnUse" id="clipPath2633"><path d="m 958.82,230.902 h 192.336 v 69.489 H 958.82 Z" transform="translate(-1119.0634,-291.7173)" id="path2633"/></clipPath><clipPath clipPathUnits="userSpaceOnUse" id="clipPath2635"><path d="m 958.82,230.902 h 192.336 v 69.489 H 958.82 Z" transform="translate(-1142.91,-278.70611)" id="path2635"/></clipPath><clipPath clipPathUnits="userSpaceOnUse" id="clipPath2637"><path d="m 958.82,230.902 h 192.336 v 69.489 H 958.82 Z" transform="translate(-986.04211,-254.9007)" id="path2637"/></clipPath><clipPath clipPathUnits="userSpaceOnUse" id="clipPath2639"><path d="m 958.82,230.902 h 192.336 v 69.489 H 958.82 Z" transform="translate(-1008.5539,-241.4409)" id="path2639"/></clipPath><clipPath clipPathUnits="userSpaceOnUse" id="clipPath2641"><path d="m 958.82,230.902 h 192.336 v 69.489 H 958.82 Z" transform="translate(-1030.226,-244.59911)" id="path2641"/></clipPath><clipPath clipPathUnits="userSpaceOnUse" id="clipPath2643"><path d="m 958.82,230.902 h 192.336 v 69.489 H 958.82 Z" transform="translate(-1055.1597,-255.10311)" id="path2643"/></clipPath><clipPath clipPathUnits="userSpaceOnUse" id="clipPath2645"><path d="m 958.82,230.902 h 192.336 v 69.489 H 958.82 Z" transform="translate(-1081.6755,-254.59281)" id="path2645"/></clipPath><clipPath clipPathUnits="userSpaceOnUse" id="clipPath2647"><path d="m 958.82,230.902 h 192.336 v 69.489 H 958.82 Z" transform="translate(-1092.282,-253.63391)" id="path2647"/></clipPath><clipPath clipPathUnits="userSpaceOnUse" id="clipPath2649"><path d="m 958.82,230.902 h 192.336 v 69.489 H 958.82 Z" transform="translate(-1121.2461,-242.04791)" id="path2649"/></clipPath><clipPath clipPathUnits="userSpaceOnUse" id="clipPath2651"><path d="m 958.82,230.902 h 192.336 v 69.489 H 958.82 Z" transform="translate(-1004.2187,-295.52651)" id="path2651"/></clipPath></defs><g id="g1" transform="matrix(0.26458332,0,0,0.26458335,-272.14496,-317.42936)"><path id="path2618" d="m 0,0 c -0.062,0.185 -0.15,0.457 -0.91,0.457 -0.168,0 -0.372,-0.008 -0.61,-0.044 -0.875,-0.105 -0.787,-2.577 -0.769,-2.859 0.07,-1.451 0.38,-3.052 0.857,-4.653 1.22,2.938 1.927,5.647 1.441,7.099 z m 9.776,-21.905 c -1.309,-1.267 -2.67,-1.505 -3.598,-1.461 -2.943,0.097 -5.701,2.736 -7.902,6.238 -1.971,-3.132 -4.366,-6.15 -6.39,-6.352 -0.141,-0.018 -0.283,-0.026 -0.433,-0.026 -2.325,0 -5.595,1.979 -11.676,13.767 -3.332,6.458 -5.975,12.862 -6.081,13.126 l 4.093,1.671 c 0.026,-0.061 2.492,-6.035 5.568,-12.087 4.79,-9.404 7.23,-11.498 7.981,-11.955 1.078,0.906 2.864,3.448 4.543,6.439 -1.529,3.545 -2.483,7.249 -2.607,9.897 -0.283,6.14 3.146,7.24 4.64,7.425 C 0.999,5.164 2.616,3.95 3.429,2.868 5.268,0.413 4.835,-3.915 2.139,-9.985 2.121,-10.02 1.617,-11.12 0.813,-12.668 c 1.83,-3.537 4.048,-6.246 5.515,-6.299 0.107,0 0.248,0.123 0.354,0.22 2.722,2.63 3.88,15.395 3.836,23.621 L 14.946,4.9 c 0.018,-3.624 -0.133,-21.932 -5.17,-26.805" style="fill:#edf6e3;fill-opacity:1;fill-rule:nonzero;stroke:none" transform="matrix(1.3333333,0,0,-1.3333333,1063.6498,1208.248)" clip-path="url(#clipPath2619)"/><path id="path2620" d="m 1004.011,291.225 h 4.534 v -20.498 h -4.534 z" style="fill:#edf6e3;fill-opacity:1;fill-rule:nonzero;stroke:none" transform="matrix(1.3333333,0,0,-1.3333333,-249.84723,1600.2541)" clip-path="url(#clipPath2621)"/><path id="path2622" d="M 0,0 H 0.769 V -4.636 H 0 c -1.997,0 -3.571,-0.563 -4.702,-1.68 -1.14,-1.118 -1.706,-2.631 -1.706,-4.549 v -9.976 h -4.534 v 20.507 h 4.534 v -3 C -4.764,-1.108 -2.625,0 0,0" style="fill:#edf6e3;fill-opacity:1;fill-rule:nonzero;stroke:none" transform="matrix(1.3333333,0,0,-1.3333333,1117.0939,1211.509)" clip-path="url(#clipPath2623)"/><path id="path2624" d="m 0,0 h -5.815 v -9.695 c 0,-0.941 0.256,-1.653 0.777,-2.129 0.522,-0.475 1.255,-0.712 2.219,-0.712 0.91,0 1.847,0.237 2.819,0.704 v -4.223 c -1.113,-0.563 -2.378,-0.845 -3.765,-0.845 -2.175,0 -3.809,0.572 -4.914,1.707 -1.105,1.135 -1.653,2.727 -1.653,4.768 V 0 h -3.491 v 4.082 h 3.491 v 5.322 h 4.517 V 4.082 H 0 Z" style="fill:#edf6e3;fill-opacity:1;fill-rule:nonzero;stroke:none" transform="matrix(1.3333333,0,0,-1.3333333,1140.0032,1217.3972)" clip-path="url(#clipPath2625)"/><path id="path2626" d="m 0,0 c -2.863,0 -5.17,0.792 -6.912,2.375 -1.741,1.584 -2.616,3.678 -2.616,6.282 v 12.325 h 4.517 V 9.246 c 0,-1.469 0.459,-2.648 1.378,-3.545 0.92,-0.898 2.131,-1.346 3.633,-1.346 1.503,0 2.705,0.448 3.607,1.337 0.901,0.888 1.36,2.076 1.36,3.554 V 20.982 H 9.484 V 8.657 C 9.484,6.053 8.618,3.959 6.877,2.375 5.144,0.792 2.846,0 -0.009,0 Z" style="fill:#edf6e3;fill-opacity:1;fill-rule:nonzero;stroke:none" transform="matrix(1.3333333,0,0,-1.3333333,1158.1872,1239.93)" clip-path="url(#clipPath2627)"/><path id="path2628" d="m 0,0 c 1.812,0 3.324,0.616 4.526,1.839 1.202,1.222 1.803,2.736 1.803,4.548 0,1.812 -0.601,3.343 -1.803,4.566 -1.202,1.222 -2.714,1.838 -4.526,1.838 -1.812,0 -3.35,-0.616 -4.569,-1.838 C -5.789,9.73 -6.39,8.208 -6.39,6.387 -6.39,4.566 -5.78,3.061 -4.569,1.839 -3.35,0.616 -1.829,0 0,0 m 6.329,16.627 h 4.534 V -3.871 H 6.329 v 2.947 c -1.812,-2.287 -4.225,-3.431 -7.221,-3.431 -1.909,0 -3.633,0.467 -5.189,1.399 -1.555,0.933 -2.766,2.217 -3.641,3.853 -0.875,1.637 -1.308,3.458 -1.308,5.481 0,2.023 0.442,3.844 1.308,5.481 0.875,1.636 2.086,2.92 3.641,3.853 1.547,0.932 3.28,1.399 5.189,1.399 3.013,0 5.418,-1.135 7.221,-3.414 z" style="fill:#edf6e3;fill-opacity:1;fill-rule:nonzero;stroke:none" transform="matrix(1.3333333,0,0,-1.3333333,1191.1491,1234.1239)" clip-path="url(#clipPath2629)"/><path id="path2630" d="M 0,0 V 28.961 H 4.534 V 0.009 H 0 Z" style="fill:#edf6e3;fill-opacity:1;fill-rule:nonzero;stroke:none" transform="matrix(1.3333333,0,0,-1.3333333,1213.2816,1239.2848)" clip-path="url(#clipPath2631)"/><path id="path2632" d="M 0,0 C 2.448,0 4.41,-0.739 5.904,-2.217 7.398,-3.695 8.14,-5.648 8.14,-8.085 V -20.981 H 3.624 v 11.427 c 0,1.575 -0.468,2.833 -1.397,3.792 -0.936,0.95 -2.174,1.434 -3.73,1.434 -1.626,0 -2.943,-0.484 -3.942,-1.452 -0.998,-0.967 -1.502,-2.252 -1.502,-3.844 v -11.349 h -4.534 v 20.48 h 4.534 V -3.141 C -5.25,-1.047 -2.935,0 -0.009,0 Z" style="fill:#edf6e3;fill-opacity:1;fill-rule:nonzero;stroke:none" transform="matrix(1.3333333,0,0,-1.3333333,1242.2372,1211.2978)" clip-path="url(#clipPath2633)"/><path id="path2634" d="M 0,0 C -0.778,0.352 -1.617,0.537 -2.458,0.537 H -2.625 C -5.939,0.44 -7.169,-1.39 -7.159,-2.525 c 0,-0.431 0.141,-0.932 1.21,-0.95 3.341,-0.053 5.127,2.041 5.949,3.484 z m 5.25,1.531 c 1.564,-1.725 3.244,-4.733 2.961,-9.633 l -4.419,0.255 c 0.097,1.751 -0.124,3.29 -0.654,4.566 -2.14,-2.974 -5.419,-4.672 -9.166,-4.593 -3.253,0.053 -5.542,2.244 -5.559,5.332 -0.027,3.51 3.066,7.328 8.829,7.495 C -1.441,4.988 -0.141,4.777 1.069,4.337 1.008,5.525 0.627,6.58 -0.053,7.311 -2.042,9.439 -7.698,7.636 -10.129,6.431 l -1.98,3.941 C -11.048,10.9 -1.582,15.404 3.182,10.31 5.197,8.155 5.922,4.847 5.241,1.54 Z" style="fill:#edf6e3;fill-opacity:1;fill-rule:nonzero;stroke:none" transform="matrix(1.3333333,0,0,-1.3333333,1274.0327,1228.646)" clip-path="url(#clipPath2635)"/><path id="path2636" d="m 0,0 c -1.405,0 -2.581,-0.449 -3.518,-1.346 -0.937,-0.897 -1.414,-2.015 -1.414,-3.369 0,-1.355 0.468,-2.455 1.414,-3.343 0.937,-0.898 2.113,-1.346 3.518,-1.346 1.405,0 2.554,0.448 3.491,1.355 0.937,0.906 1.397,2.014 1.397,3.334 0,1.319 -0.469,2.472 -1.397,3.369 C 2.563,-0.449 1.396,0 0,0 m 4.578,-16.917 c 1.998,0 3.66,-0.519 4.994,-1.557 1.326,-1.038 2.139,-2.464 2.449,-4.267 l -4.694,-1.258 c -0.053,0.827 -0.406,1.478 -1.069,1.971 -0.654,0.492 -1.503,0.739 -2.528,0.739 h -7.08 c -1.829,0 -3.305,0.484 -4.437,1.443 -1.131,0.958 -1.697,2.225 -1.697,3.773 0,1.021 0.248,1.98 0.734,2.877 0.486,0.897 1.14,1.584 1.971,2.067 -1.856,1.716 -2.784,3.854 -2.784,6.423 0,2.568 0.91,4.688 2.74,6.404 1.829,1.715 4.101,2.569 6.823,2.569 1.679,0 3.244,-0.361 4.693,-1.082 0.265,1.099 0.849,1.961 1.742,2.595 0.901,0.624 1.997,0.941 3.305,0.941 h 1.662 V 2.542 H 9.979 C 9.351,2.542 8.821,2.384 8.388,2.059 7.964,1.733 7.725,1.311 7.672,0.774 8.945,-0.809 9.59,-2.639 9.59,-4.706 c 0,-2.543 -0.919,-4.663 -2.758,-6.379 -1.838,-1.715 -4.119,-2.568 -6.823,-2.568 -1.406,0 -2.687,0.22 -3.827,0.668 -0.734,-0.484 -1.105,-1.135 -1.105,-1.962 0,-0.58 0.221,-1.046 0.672,-1.416 0.45,-0.369 1.034,-0.545 1.759,-0.545 h 7.079 z" style="fill:#edf6e3;fill-opacity:1;fill-rule:nonzero;stroke:none" transform="matrix(1.3333333,0,0,-1.3333333,1064.8755,1260.3866)" clip-path="url(#clipPath2637)"/><path id="path2638" d="M 0,0 C 1.396,0 2.554,0.264 3.482,0.8 4.41,1.337 4.87,2.006 4.87,2.806 4.87,3.607 4.41,4.293 3.482,4.83 2.554,5.366 1.396,5.639 0,5.639 -1.396,5.639 -2.466,5.384 -3.323,4.865 -4.181,4.346 -4.614,3.66 -4.614,2.815 -4.614,1.971 -4.181,1.284 -3.323,0.774 -2.466,0.264 -1.352,0.009 0,0.009 Z m 0.159,17.726 c 2.731,0 4.958,-0.739 6.673,-2.225 1.715,-1.487 2.572,-3.466 2.572,-5.938 V -3.255 H 5.206 v 1.724 C 3.677,-3.009 1.6,-3.748 -1.025,-3.748 c -2.378,0 -4.349,0.608 -5.896,1.839 -1.555,1.223 -2.324,2.797 -2.324,4.724 0,1.927 0.769,3.501 2.315,4.724 1.547,1.223 3.492,1.839 5.825,1.839 2.334,0 4.384,-0.651 5.975,-1.962 v 1.848 c 0,1.372 -0.46,2.463 -1.379,3.254 -0.919,0.801 -2.156,1.197 -3.712,1.197 -2.183,0 -4.039,-0.704 -5.56,-2.12 l -2.465,2.806 c 0.989,1.021 2.209,1.83 3.668,2.437 1.458,0.598 3.04,0.906 4.737,0.906 z" style="fill:#edf6e3;fill-opacity:1;fill-rule:nonzero;stroke:none" transform="matrix(1.3333333,0,0,-1.3333333,1094.8912,1278.333)" clip-path="url(#clipPath2639)"/><path id="path2640" d="m 0,0 c -0.787,0.053 -1.555,-0.07 -2.298,-0.369 -1.608,-0.651 -2.139,-1.813 -2.077,-2.085 0,0 0.071,-0.08 0.274,-0.168 0.38,-0.167 1.176,0.132 2.077,0.783 0.681,0.493 1.361,1.126 2.015,1.839 z M 12.021,-4.319 8.246,-6.624 C 6.983,-4.575 5.621,-2.965 4.225,-1.847 3.421,-2.824 2.598,-3.704 1.794,-4.425 c -2.262,-2.023 -4.163,-2.657 -5.648,-2.657 -0.804,0 -1.484,0.185 -2.041,0.431 -2.006,0.889 -3.076,2.639 -2.882,4.68 0.274,2.78 2.9,5.358 6.241,6.123 1.131,0.255 3.093,0.467 5.435,-0.299 1.618,2.56 2.838,5.217 3.235,6.73 -4.366,0.185 -13.364,-0.097 -13.47,-0.105 l -0.142,4.407 C -7,14.903 4.296,15.263 7.981,14.876 9.175,14.753 10.12,13.979 10.5,12.809 11.252,10.513 9.422,5.885 6.806,1.742 c 1.715,-1.32 3.491,-3.255 5.215,-6.061" style="fill:#edf6e3;fill-opacity:1;fill-rule:nonzero;stroke:none" transform="matrix(1.3333333,0,0,-1.3333333,1123.7874,1274.122)" clip-path="url(#clipPath2641)"/><path id="path2642" d="M 0,0 C -1.458,0 -2.731,-0.44 -3.818,-1.32 -4.905,-2.199 -5.63,-3.352 -6.001,-4.795 H 6.01 C 5.666,-3.352 4.95,-2.199 3.854,-1.32 2.758,-0.44 1.467,0 0,0 m 10.845,-6.712 c 0,-0.599 -0.035,-1.188 -0.114,-1.769 H -5.957 c 0.371,-1.478 1.149,-2.656 2.334,-3.545 1.193,-0.88 2.615,-1.328 4.286,-1.328 1.291,0 2.493,0.264 3.598,0.809 1.113,0.537 1.979,1.214 2.589,2.023 l 3.058,-2.612 C 8.839,-14.472 7.496,-15.518 5.851,-16.275 4.217,-17.031 2.44,-17.41 0.539,-17.41 c -3.261,0 -5.975,1.029 -8.131,3.106 -2.166,2.067 -3.244,4.636 -3.244,7.715 0,1.988 0.477,3.8 1.423,5.428 0.946,1.627 2.254,2.903 3.916,3.835 1.661,0.933 3.508,1.39 5.532,1.39 3.094,0 5.666,-1.02 7.725,-3.07 2.06,-2.05 3.085,-4.618 3.085,-7.706" style="fill:#edf6e3;fill-opacity:1;fill-rule:nonzero;stroke:none" transform="matrix(1.3333333,0,0,-1.3333333,1157.0323,1260.1167)" clip-path="url(#clipPath2643)"/><path id="path2644" d="m 0,0 h -5.815 v -9.695 c 0,-0.941 0.256,-1.654 0.777,-2.129 0.522,-0.475 1.255,-0.712 2.219,-0.712 0.91,0 1.847,0.237 2.819,0.704 v -4.223 c -1.114,-0.563 -2.378,-0.845 -3.765,-0.845 -2.174,0 -3.809,0.572 -4.914,1.707 -1.105,1.135 -1.653,2.727 -1.653,4.768 V 0 h -3.491 v 4.082 h 3.491 v 5.322 h 4.517 V 4.082 H 0 Z" style="fill:#edf6e3;fill-opacity:1;fill-rule:nonzero;stroke:none" transform="matrix(1.3333333,0,0,-1.3333333,1192.3867,1260.7971)" clip-path="url(#clipPath2645)"/><path id="path2646" d="M 0,0 C 2.077,4.319 1.936,7.698 1.423,8.225 H 1.37 C 0.292,7.337 -1.264,2.507 -1.547,-2.622 -0.946,-1.777 -0.424,-0.871 0,0.009 Z m 15.68,-12.255 -1.768,-4.038 c -4.225,1.83 -6.673,3.959 -8.096,5.798 -1.944,-2.947 -3.686,-5.138 -5.851,-5.138 -0.398,0 -0.804,0.071 -1.237,0.229 -2.024,0.739 -3.227,2.551 -3.907,4.715 -1.008,-0.237 -2.033,-0.281 -3.067,-0.149 l 0.601,4.363 c 0.583,-0.079 1.149,-0.017 1.714,0.15 -0.177,2.639 0.045,5.129 0.204,6.404 0.335,2.798 1.803,11.973 6.443,12.492 1.9,0.22 3.545,-0.554 4.508,-2.102 C 7.39,6.976 5.542,0.079 2.51,-4.575 1.397,-6.281 0.168,-7.662 -1.14,-8.692 c 0.301,-1.275 0.707,-1.997 1.043,-2.34 0.857,0.792 2.324,3.088 3.332,4.672 3.005,4.697 6.399,10.02 11.163,10.891 l 0.805,-4.329 c -2.263,-0.413 -4.685,-3.554 -6.718,-6.598 0.504,-1.143 2.13,-3.668 7.203,-5.867 z" style="fill:#edf6e3;fill-opacity:1;fill-rule:nonzero;stroke:none" transform="matrix(1.3333333,0,0,-1.3333333,1206.5287,1262.0756)" clip-path="url(#clipPath2647)"/><path id="path2648" d="m 0,0 c 1.812,0 3.324,0.616 4.526,1.839 1.202,1.222 1.802,2.736 1.802,4.548 0,1.812 -0.6,3.343 -1.802,4.566 -1.202,1.222 -2.714,1.838 -4.526,1.838 -1.812,0 -3.35,-0.616 -4.57,-1.838 C -5.789,9.73 -6.39,8.208 -6.39,6.387 -6.39,4.566 -5.78,3.061 -4.57,1.839 -3.35,0.616 -1.829,0 0,0 m 6.328,16.627 h 4.535 V -3.871 H 6.328 v 2.947 c -1.811,-2.287 -4.224,-3.431 -7.22,-3.431 -1.909,0 -3.633,0.467 -5.189,1.399 -1.555,0.933 -2.766,2.217 -3.641,3.853 -0.875,1.637 -1.308,3.458 -1.308,5.481 0,2.023 0.441,3.844 1.308,5.481 0.875,1.636 2.086,2.92 3.641,3.853 1.547,0.932 3.28,1.399 5.189,1.399 3.013,0 5.418,-1.135 7.22,-3.414 z" style="fill:#edf6e3;fill-opacity:1;fill-rule:nonzero;stroke:none" transform="matrix(1.3333333,0,0,-1.3333333,1245.1475,1277.5236)" clip-path="url(#clipPath2649)"/><path id="path2650" d="m 0,0 c 0.548,-0.554 1.237,-0.827 2.051,-0.827 0.822,0 1.511,0.273 2.068,0.818 C 4.676,0.537 4.95,1.196 4.95,2.023 4.95,2.85 4.667,3.528 4.119,4.064 3.571,4.601 2.864,4.865 2.051,4.865 1.237,4.865 0.548,4.601 0,4.064 -0.557,3.528 -0.831,2.824 -0.831,2.023 -0.831,1.223 -0.548,0.554 0,0" style="fill:#edf6e3;fill-opacity:1;fill-rule:nonzero;stroke:none" transform="matrix(1.3333333,0,0,-1.3333333,1089.111,1206.2188)" clip-path="url(#clipPath2651)"/></g></svg>